<svg width="20" height="19" viewBox="0 0 20 19" fill="none" xmlns="http://www.w3.org/2000/svg">
<path d="M2.19798 18.8844H17.8037C18.1654 18.8844 18.5272 18.7928 18.8431 18.6233C19.3606 18.344 19.7361 17.8815 19.9055 17.3183C20.0749 16.7551 20.0154 16.1598 19.7361 15.6469L11.9378 1.15394C11.5532 0.439597 10.8113 0 10.0008 0C9.19032 0 8.4485 0.444176 8.06386 1.15394L0.261011 15.6469C0.0870037 15.9674 0 16.3246 0 16.6909C0 17.2771 0.228958 17.8312 0.645658 18.2433C1.05778 18.66 1.60728 18.8844 2.19798 18.8844ZM17.8037 17.419H2.19341C1.9965 17.419 1.81334 17.3412 1.67596 17.2038C1.53859 17.0664 1.46074 16.8833 1.46074 16.6864C1.46074 16.5673 1.4928 16.4437 1.54775 16.3384L9.35517 1.84997C9.54292 1.50196 9.86804 1.46532 10.0008 1.46532C10.1336 1.46532 10.4587 1.50196 10.6465 1.84997L18.4493 16.3429C18.5409 16.5169 18.5638 16.7138 18.5043 16.9016C18.4493 17.0893 18.3211 17.245 18.1517 17.3366C18.0464 17.3916 17.9273 17.419 17.8037 17.419Z" fill="currentColor"/>
<path d="M10.0004 12.9861C10.3897 12.9861 10.7148 12.6793 10.7331 12.2901L10.9941 6.70353C10.9941 6.69895 10.9941 6.69437 10.9941 6.68979V6.66689C10.9987 6.1174 10.5591 5.66864 10.0096 5.66406C9.99127 5.66406 9.97296 5.66406 9.95464 5.66406C9.40515 5.68696 8.97929 6.15403 9.00676 6.70353L9.26777 12.2901C9.28609 12.6793 9.61121 12.9861 10.0004 12.9861Z" fill="currentColor"/>
<path d="M10.0012 15.9078C10.5049 15.9078 10.917 15.4957 10.917 14.992C10.917 14.4883 10.5049 14.0762 10.0012 14.0762C9.49746 14.0762 9.08534 14.4883 9.08534 14.992C9.08534 15.4957 9.49746 15.9078 10.0012 15.9078Z" fill="currentColor"/>
</svg>
