<svg width="17" height="16" viewBox="0 0 17 16" fill="none" xmlns="http://www.w3.org/2000/svg">
<rect x="2.84619" y="6" width="5" height="1" fill="#FF0707"/>
<rect x="2.84619" y="11" width="11" height="1" fill="#FF0707"/>
<path fill-rule="evenodd" clip-rule="evenodd" d="M2.38462 1.19231C1.72612 1.19231 1.19231 1.72612 1.19231 2.38462V13.1154C1.19231 13.7739 1.72612 14.3077 2.38462 14.3077H14.3077C14.9662 14.3077 15.5 13.7739 15.5 13.1154V2.38462C15.5 1.72612 14.9662 1.19231 14.3077 1.19231H2.38462ZM0 2.38462C0 1.06763 1.06763 0 2.38462 0H14.3077C15.6247 0 16.6923 1.06763 16.6923 2.38462V13.1154C16.6923 14.4324 15.6247 15.5 14.3077 15.5H2.38462C1.06763 15.5 0 14.4324 0 13.1154V2.38462Z" fill="#FF0707"/>
<path d="M13.6304 0.595703H3.06203C1.70243 0.595703 0.596191 1.71908 0.596191 3.09955V4.76878H1.19235C1.19235 4.17263 1.7885 3.57647 2.38465 3.57647H14.3077C14.9039 3.57647 15.5 4.17263 15.5 4.76878H16.0962V3.09955C16.0962 1.71908 14.99 0.595703 13.6304 0.595703Z" fill="#FF0707"/>
</svg>
