<svg width="17" height="17" viewBox="0 0 17 17" fill="none" xmlns="http://www.w3.org/2000/svg">
<path fill-rule="evenodd" clip-rule="evenodd" d="M5.77717 4.21739C4.91573 4.21739 4.21739 4.91573 4.21739 5.77717V14.2228C4.21739 15.0843 4.91573 15.7826 5.77717 15.7826H14.2228C15.0843 15.7826 15.7826 15.0843 15.7826 14.2228V5.77717C15.7826 4.91573 15.0843 4.21739 14.2228 4.21739H5.77717ZM3 5.77717C3 4.24338 4.24338 3 5.77717 3H14.2228C15.7566 3 17 4.24338 17 5.77717V14.2228C17 15.7566 15.7566 17 14.2228 17H5.77717C4.24338 17 3 15.7566 3 14.2228V5.77717Z" fill="#2BA071"/>
<path fill-rule="evenodd" clip-rule="evenodd" d="M3.04168 2.64852e-06L3.04348 0H11.2609L11.2626 2.46711e-06C11.988 0.0020661 12.683 0.291132 13.196 0.804047C13.7089 1.31696 13.9979 2.01203 14 2.7374C14 2.7422 14 2.74701 13.9999 2.75181L13.9808 3.66485C13.9738 4.00095 13.6957 4.26774 13.3596 4.26074C13.0235 4.25374 12.7567 3.9756 12.7637 3.6395L12.7826 2.73427C12.7797 2.33296 12.619 1.94878 12.3351 1.66487C12.0499 1.3796 11.6633 1.21875 11.2599 1.21739H3.04445C2.5604 1.21904 2.09664 1.41206 1.75435 1.75435C1.41206 2.09664 1.21904 2.5604 1.21739 3.04445V11.2599C1.21875 11.6633 1.3796 12.0499 1.66487 12.3351C1.95015 12.6204 2.33669 12.7813 2.74011 12.7826H3.65217C3.98835 12.7826 4.26087 13.0551 4.26087 13.3913C4.26087 13.7275 3.98835 14 3.65217 14H2.73913L2.7374 14C2.01203 13.9979 1.31696 13.7089 0.804047 13.196C0.291132 12.683 0.0020661 11.988 2.46711e-06 11.2626L0 11.2609V3.04348L2.64852e-06 3.04168C0.00238479 2.23571 0.323611 1.46343 0.893521 0.893521C1.46343 0.323611 2.23571 0.00238479 3.04168 2.64852e-06Z" fill="#2BA071"/>
</svg>
