<svg width="26" height="18" viewBox="0 0 26 18" fill="none" xmlns="http://www.w3.org/2000/svg">
<path d="M22.7798 2.28C20.9908 0.84 18.844 0.12 16.578 0L16.2202 0.36C18.2477 0.84 20.0367 1.8 21.7064 3.12C19.6789 2.04 17.4128 1.32 15.0275 1.08C14.3119 0.96 13.7156 0.96 13 0.96C12.2844 0.96 11.6881 0.96 10.9725 1.08C8.58716 1.32 6.3211 2.04 4.29358 3.12C5.9633 1.8 7.75229 0.84 9.77982 0.36L9.42202 0C7.15596 0.12 5.00917 0.84 3.22018 2.28C1.19266 6.12 0.119266 10.44 0 14.88C1.78899 16.8 4.29358 18 6.91743 18C6.91743 18 7.75229 17.04 8.34862 16.2C6.79817 15.84 5.36697 15 4.41284 13.68C5.24771 14.16 6.08257 14.64 6.91743 15C7.99083 15.48 9.06422 15.72 10.1376 15.96C11.0917 16.08 12.0459 16.2 13 16.2C13.9541 16.2 14.9083 16.08 15.8624 15.96C16.9358 15.72 18.0092 15.48 19.0826 15C19.9174 14.64 20.7523 14.16 21.5872 13.68C20.633 15 19.2018 15.84 17.6514 16.2C18.2477 17.04 19.0826 18 19.0826 18C21.7064 18 24.211 16.8 26 14.88C25.8807 10.44 24.8073 6.12 22.7798 2.28ZM9.06422 12.72C7.87156 12.72 6.79816 11.64 6.79816 10.32C6.79816 9 7.87156 7.92 9.06422 7.92C10.2569 7.92 11.3303 9 11.3303 10.32C11.3303 11.64 10.2569 12.72 9.06422 12.72ZM16.9358 12.72C15.7431 12.72 14.6697 11.64 14.6697 10.32C14.6697 9 15.7431 7.92 16.9358 7.92C18.1284 7.92 19.2018 9 19.2018 10.32C19.2018 11.64 18.1284 12.72 16.9358 12.72Z" fill="white"/>
</svg>
