<svg width="14" height="14" viewBox="0 0 14 14" fill="none" xmlns="http://www.w3.org/2000/svg">
<path d="M3 13.5C3 13.225 3.23571 13 3.52381 13H11.381C12.2505 13 12.9524 12.33 12.9524 11.5V2.5C12.9524 1.67 12.2505 1 11.381 1H3.52381C3.23571 1 3 0.775 3 0.5C3 0.225 3.23571 0 3.52381 0H11.381C12.8267 0 14 1.12 14 2.5V11.5C14 12.88 12.8267 14 11.381 14H3.52381C3.23571 14 3 13.775 3 13.5Z" fill="#FF0000"/>
<path d="M9.29394 7.99982L7.14422 10.1441C6.94924 10.339 6.94924 10.6589 7.14422 10.8538C7.3392 11.0487 7.65912 11.0487 7.8541 10.8538L10.8538 7.85486C11.0487 7.65992 11.0487 7.34008 10.8538 7.14514L7.8541 4.1462C7.65912 3.95127 7.3392 3.95127 7.14422 4.1462C6.94924 4.34113 6.94924 4.66098 7.14422 4.85591L9.29394 7.00018H0.499944C0.224975 7.00018 0 7.2251 0 7.5C0 7.7749 0.224975 7.99982 0.499944 7.99982H9.29394Z" fill="#FF0000"/>
</svg>
