<svg width="24" height="24" viewBox="0 0 24 24" fill="none" xmlns="http://www.w3.org/2000/svg">
<path d="M4.07983 4L10.5618 12.101C10.8456 12.4558 11 12.8967 10.9998 13.351V20L12.9998 18.5V13.35C12.9998 12.896 13.1543 12.4556 13.4378 12.101L19.9198 4H4.08083H4.07983ZM4.07983 2H19.9198C20.2966 2.00005 20.6657 2.10652 20.9846 2.30717C21.3035 2.50781 21.5593 2.79445 21.7224 3.13409C21.8855 3.47372 21.9494 3.85253 21.9067 4.22687C21.8639 4.60122 21.7163 4.95588 21.4808 5.25L14.9998 13.35V18.5C14.9998 18.8105 14.9275 19.1167 14.7887 19.3944C14.6498 19.6721 14.4482 19.9137 14.1998 20.1L12.1998 21.6C11.9027 21.8229 11.5494 21.9586 11.1794 21.9919C10.8095 22.0253 10.4376 21.955 10.1054 21.7889C9.77319 21.6227 9.4938 21.3674 9.29853 21.0515C9.10326 20.7355 8.99983 20.3714 8.99983 20V13.35L2.51883 5.25C2.28334 4.95588 2.13573 4.60122 2.09299 4.22687C2.05025 3.85253 2.11412 3.47372 2.27725 3.13409C2.44038 2.79445 2.69613 2.50781 3.01504 2.30717C3.33395 2.10652 3.70305 2.00005 4.07983 2V2Z" fill="#2BA071"/>
</svg>
