<svg width="13" height="18" viewBox="0 0 13 18" fill="none" xmlns="http://www.w3.org/2000/svg">
<path d="M2.78571 1.80004C2.53944 1.80004 2.30326 1.89486 2.12912 2.06365C1.95497 2.23244 1.85714 2.46136 1.85714 2.70006V16.2004L4.62243 13.755C5.13564 13.3012 5.80528 13.0496 6.5 13.0496C7.19472 13.0496 7.86436 13.3012 8.37757 13.755L11.1429 16.2004V2.70006C11.1429 2.46136 11.045 2.23244 10.8709 2.06365C10.6967 1.89486 10.4606 1.80004 10.2143 1.80004H2.78571ZM2.78571 0H10.2143C10.9531 0 11.6617 0.28447 12.1841 0.79083C12.7065 1.29719 13 1.98396 13 2.70006V16.2004C12.9999 16.5493 12.8952 16.8908 12.6985 17.1831C12.5019 17.4754 12.2219 17.706 11.8924 17.8469C11.563 17.9877 11.1985 18.0327 10.8432 17.9764C10.4879 17.9201 10.1571 17.7649 9.89114 17.5297L7.12586 15.0843C6.95479 14.9331 6.73157 14.8492 6.5 14.8492C6.26843 14.8492 6.04521 14.9331 5.87414 15.0843L3.10886 17.5297C2.84289 17.7649 2.51212 17.9201 2.15681 17.9764C1.80149 18.0327 1.43695 17.9877 1.10755 17.8469C0.778148 17.706 0.498088 17.4754 0.301452 17.1831C0.104816 16.8908 8.32829e-05 16.5493 0 16.2004L0 2.70006C0 1.98396 0.293494 1.29719 0.815917 0.79083C1.33834 0.28447 2.0469 0 2.78571 0V0Z" fill="#40A6EE"/>
</svg>
