<svg width="20" height="17" viewBox="0 0 20 17" fill="none" xmlns="http://www.w3.org/2000/svg">
<mask id="path-1-inside-1_410_8850" fill="white">
<path d="M20 16.4497L3.33333 0L0 3.28993L6.66667 9.86979L4.44444 12.0631C6.38028 14.132 8.8554 15.6356 11.599 16.4093C14.3426 17.183 17.2489 17.1969 20 16.4497Z"/>
</mask>
<path d="M21.0537 15.3821C21.6433 15.964 21.6495 16.9137 21.0676 17.5033C20.4857 18.093 19.5359 18.0992 18.9463 17.5172L20 16.4497L21.0537 15.3821ZM3.33333 0L2.27965 -1.06759C2.8638 -1.64414 3.80286 -1.64414 4.38702 -1.06759L3.33333 0ZM0 3.28993L-1.05369 4.35752C-1.33925 4.07567 -1.5 3.69116 -1.5 3.28993C-1.5 2.8887 -1.33925 2.50419 -1.05369 2.22234L0 3.28993ZM6.66667 9.86979L7.72035 8.80221C8.00592 9.08405 8.16667 9.46856 8.16667 9.86979C8.16667 10.271 8.00592 10.6555 7.72035 10.9374L6.66667 9.86979ZM4.44444 12.0631L3.34913 13.0879C2.79378 12.4944 2.81223 11.5665 3.39076 10.9955L4.44444 12.0631ZM19.6068 15.0021C20.4063 14.785 21.2304 15.257 21.4475 16.0565C21.6647 16.8559 21.1927 17.6801 20.3932 17.8972L20 16.4497L19.6068 15.0021ZM20 16.4497L18.9463 17.5172L2.27965 1.06759L3.33333 0L4.38702 -1.06759L21.0537 15.3821L20 16.4497ZM3.33333 0L4.38702 1.06759L1.05369 4.35752L0 3.28993L-1.05369 2.22234L2.27965 -1.06759L3.33333 0ZM0 3.28993L1.05369 2.22234L7.72035 8.80221L6.66667 9.86979L5.61298 10.9374L-1.05369 4.35752L0 3.28993ZM6.66667 9.86979L7.72035 10.9374L5.49813 13.1307L4.44444 12.0631L3.39076 10.9955L5.61298 8.80221L6.66667 9.86979ZM4.44444 12.0631L5.53975 11.0382C7.28749 12.9062 9.52413 14.2657 12.0061 14.9656L11.599 16.4093L11.1919 17.853C8.18668 17.0055 5.47308 15.3579 3.34913 13.0879L4.44444 12.0631ZM11.599 16.4093L12.0061 14.9656C14.4882 15.6655 17.1179 15.6782 19.6068 15.0021L20 16.4497L20.3932 17.8972C17.3799 18.7157 14.197 18.7004 11.1919 17.853L11.599 16.4093Z" fill="white" mask="url(#path-1-inside-1_410_8850)"/>
</svg>
