<svg width="17" height="17" viewBox="0 0 17 17" fill="none" xmlns="http://www.w3.org/2000/svg">
<path d="M6.75 9.2003C7.07361 9.64403 7.48648 10.0112 7.96061 10.2769C8.43473 10.5426 8.95902 10.7005 9.49791 10.7401C10.0368 10.7797 10.5777 10.7 11.0839 10.5063C11.5901 10.3126 12.0498 10.0096 12.4317 9.61765L14.6924 7.29902C15.3787 6.57019 15.7584 5.59404 15.7499 4.58081C15.7413 3.56758 15.345 2.59834 14.6465 1.88185C13.9479 1.16536 13.0029 0.758951 12.015 0.750146C11.0271 0.741341 10.0754 1.13085 9.3648 1.83478L8.0687 3.1564" stroke="#2BA071" stroke-width="1.5" stroke-linecap="round" stroke-linejoin="round"/>
<path d="M9.75 7.2997C9.42639 6.85597 9.01352 6.48881 8.53939 6.22313C8.06527 5.95745 7.54098 5.79946 7.00209 5.75987C6.4632 5.72029 5.92231 5.80004 5.41611 5.99371C4.90991 6.18738 4.45024 6.49045 4.06828 6.88235L1.80764 9.20098C1.12132 9.92981 0.741558 10.906 0.750142 11.9192C0.758727 12.9324 1.15497 13.9017 1.85354 14.6181C2.55211 15.3346 3.4971 15.741 4.48498 15.7499C5.47287 15.7587 6.4246 15.3692 7.1352 14.6652L8.42376 13.3436" stroke="#2BA071" stroke-width="1.5" stroke-linecap="round" stroke-linejoin="round"/>
</svg>
