<svg width="38" height="16" viewBox="0 0 38 16" fill="none" xmlns="http://www.w3.org/2000/svg">
<g filter="url(#filter0_f_277_2051)">
<rect width="22.6667" height="2" rx="1" transform="matrix(1 0 0 -1 13.333 4)" fill="#2BA071"/>
<rect width="22.6667" height="2" rx="1" transform="matrix(1 0 0 -1 7.66699 9)" fill="#2BA071"/>
<rect width="22.6667" height="2" rx="1" transform="matrix(1 0 0 -1 2 14)" fill="#2BA071"/>
</g>
<rect width="22.6667" height="2" rx="1" transform="matrix(1 0 0 -1 13.333 4)" fill="#2BA071"/>
<rect width="22.6667" height="2" rx="1" transform="matrix(1 0 0 -1 7.66699 9)" fill="#2BA071"/>
<rect width="22.6667" height="2" rx="1" transform="matrix(1 0 0 -1 2 14)" fill="#2BA071"/>
<defs>
<filter id="filter0_f_277_2051" x="0" y="0" width="38" height="16" filterUnits="userSpaceOnUse" color-interpolation-filters="sRGB">
<feFlood flood-opacity="0" result="BackgroundImageFix"/>
<feBlend mode="normal" in="SourceGraphic" in2="BackgroundImageFix" result="shape"/>
<feGaussianBlur stdDeviation="1" result="effect1_foregroundBlur_277_2051"/>
</filter>
</defs>
</svg>
