<svg width="22" height="22" viewBox="0 0 22 22" fill="none" xmlns="http://www.w3.org/2000/svg">
<path d="M9.59657 8.58594L1.43223 16.789C0.522131 17.6958 0.522131 19.1643 1.43223 20.07C1.86944 20.5049 2.46104 20.749 3.0777 20.749C3.69437 20.749 4.28596 20.5049 4.72318 20.07L12.9141 11.9034" stroke="currentColor" stroke-width="1.5" stroke-linecap="round" stroke-linejoin="round"/>
<path d="M17.3359 7.47949L12.9126 11.9028" stroke="currentColor" stroke-width="1.5" stroke-linecap="round" stroke-linejoin="round"/>
<path d="M9.59523 8.58543L14.0186 4.16211" stroke="currentColor" stroke-width="1.5" stroke-linecap="round" stroke-linejoin="round"/>
<path d="M16.4597 14.9917L20.4253 11.0262C20.6326 10.8189 20.749 10.5376 20.749 10.2444C20.749 9.95119 20.6326 9.66997 20.4253 9.4626L17.8896 6.92693L17.3367 7.47984L14.0192 4.16235L14.5721 3.60944L12.0364 1.07377C11.8291 0.866461 11.5478 0.75 11.2546 0.75C10.9614 0.75 10.6802 0.866461 10.4728 1.07377L6.50728 5.03928C6.29996 5.24665 6.1835 5.52787 6.1835 5.8211C6.1835 6.11433 6.29996 6.39555 6.50728 6.60292L9.04294 9.13859L9.59586 8.58567L12.9133 11.9032L12.3604 12.4561L14.8961 14.9917C15.1035 15.1991 15.3847 15.3155 15.6779 15.3155C15.9712 15.3155 16.2524 15.1991 16.4597 14.9917V14.9917Z" stroke="currentColor" stroke-width="1.5" stroke-linecap="round" stroke-linejoin="round"/>
</svg>
