<svg width="22" height="17" viewBox="0 0 22 17" fill="none" xmlns="http://www.w3.org/2000/svg">
<path d="M20.75 16.1351C19.2298 15.1273 17.5054 14.5967 15.7501 14.5967C13.9947 14.5967 12.2703 15.1273 10.7501 16.1351C9.22993 15.1273 7.50551 14.5967 5.75016 14.5967C3.99481 14.5967 2.27039 15.1273 0.750214 16.1351" stroke="currentColor" stroke-width="1.5" stroke-linecap="round" stroke-linejoin="round"/>
<path d="M20.75 2.28845C19.2298 1.28059 17.5054 0.75 15.7501 0.75C13.9947 0.75 12.2703 1.28059 10.7501 2.28845C9.22993 1.28059 7.50551 0.75 5.75016 0.75C3.99481 0.75 2.27039 1.28059 0.750214 2.28845" stroke="currentColor" stroke-width="1.5" stroke-linecap="round" stroke-linejoin="round"/>
<path d="M20.75 2.28809V16.1341" stroke="currentColor" stroke-width="1.5" stroke-linecap="round" stroke-linejoin="round"/>
<path d="M10.75 2.28809V16.1341" stroke="currentColor" stroke-width="1.5" stroke-linecap="round" stroke-linejoin="round"/>
<path d="M0.75 2.28809V16.1341" stroke="currentColor" stroke-width="1.5" stroke-linecap="round" stroke-linejoin="round"/>
</svg>
