<svg width="15" height="13" viewBox="0 0 15 13" fill="none" xmlns="http://www.w3.org/2000/svg">
<path fill-rule="evenodd" clip-rule="evenodd" d="M2.44437 0.926917C3.34884 0.322569 4.4122 0 5.5 0V0.508406L5.50003 0C6.95869 9.28495e-05 8.35757 0.579582 9.38899 1.61101C10.4204 2.64243 10.9999 4.04131 11 5.49997V5.5C11 6.5878 10.6774 7.65116 10.0731 8.55563C9.46874 9.4601 8.60975 10.1651 7.60476 10.5813C6.59977 10.9976 5.4939 11.1065 4.427 10.8943C3.36011 10.6821 2.3801 10.1583 1.61091 9.38909C0.841726 8.6199 0.317902 7.63989 0.105683 6.573C-0.106535 5.5061 0.00238303 4.40023 0.418665 3.39524C0.834947 2.39025 1.5399 1.53126 2.44437 0.926917ZM5.5 1.01681C6.68899 1.0169 7.82926 1.48926 8.67 2.33C9.51074 3.17074 9.9831 4.31101 9.98319 5.5M5.49997 1.01681C4.61329 1.01682 3.74652 1.27975 3.00928 1.77237C2.27202 2.26498 1.6974 2.96516 1.35808 3.78436C1.01875 4.60355 0.929973 5.50497 1.10296 6.37463C1.27594 7.24428 1.70292 8.04311 2.32991 8.67009C2.95689 9.29708 3.75572 9.72406 4.62538 9.89704C5.49503 10.07 6.39645 9.98125 7.21564 9.64192C8.03484 9.3026 8.73502 8.72798 9.22763 7.99072C9.72025 7.25348 9.98318 6.38671 9.98319 5.50003" fill="#828385"/>
<path fill-rule="evenodd" clip-rule="evenodd" d="M10.2016 9.00044C10.4221 8.82407 10.7795 8.82407 11 9.00044L14.8396 12.2295C15.0601 12.4059 15.0601 12.6918 14.8396 12.8682C14.6191 13.0446 14.2617 13.0446 14.0412 12.8682L10.2016 9.63914C9.98117 9.46277 9.98117 9.17681 10.2016 9.00044Z" fill="#828385"/>
</svg>
