<svg width="20" height="25" viewBox="0 0 20 25" fill="none" xmlns="http://www.w3.org/2000/svg">
<path fill-rule="evenodd" clip-rule="evenodd" d="M13.8485 3.25535e-06L13.8463 0H3.07694L3.07471 3.25535e-06C2.25998 0.00236921 1.47929 0.32707 0.903177 0.903178C0.32707 1.47929 0.00236893 2.25998 1.90735e-06 3.07471L0 3.07695V20.7694C0 21.0651 0.169498 21.3346 0.43601 21.4627C0.702524 21.5908 1.01887 21.5548 1.24977 21.3701L5.09596 18.2931L4.13488 17.0918L1.53847 19.1689V3.07826C1.5399 2.67034 1.70258 2.27951 1.99104 1.99104C2.27949 1.7026 2.67028 1.53992 3.07817 1.53847H13.845C14.2529 1.53992 14.6437 1.7026 14.9322 1.99104C15.2206 2.27949 15.3833 2.67028 15.3847 3.07817V3.84618H16.9232V3.07695L16.9232 3.07471C16.9208 2.25998 16.5961 1.47929 16.02 0.903178C15.4439 0.32707 14.6632 0.00236921 13.8485 3.25535e-06Z" fill="currentColor"/>
<path fill-rule="evenodd" clip-rule="evenodd" d="M16.9256 3.84668L16.9234 3.84668H6.92333V4.61604L6.92109 3.84668C6.10636 3.84905 5.32567 4.17375 4.74956 4.74986C4.17345 5.32597 3.84875 6.10666 3.84638 6.92139L3.84638 6.92363V23.8468C3.84638 24.146 4.01987 24.4181 4.29114 24.5443C4.56241 24.6705 4.88225 24.6279 5.11111 24.4352L11.9234 18.6986L18.7356 24.4352C18.9645 24.6279 19.2843 24.6705 19.5556 24.5443C19.8269 24.4181 20.0003 24.146 20.0003 23.8468V6.92363L20.0003 6.92139C19.998 6.10666 19.6733 5.32597 19.0972 4.74986C18.5211 4.17375 17.7404 3.84905 16.9256 3.84668ZM6.92455 5.38515H16.9222C17.3301 5.3866 17.7209 5.54928 18.0093 5.83772C18.2977 6.12617 18.4604 6.51696 18.4619 6.92485V22.1934L12.4189 17.1045C12.1325 16.8634 11.7142 16.8634 11.4279 17.1045L5.38485 22.1934V6.92494C5.38628 6.51702 5.54896 6.12619 5.83743 5.83772C6.12587 5.54928 6.51666 5.3866 6.92455 5.38515Z" fill="currentColor"/>
</svg>
