<svg width="22" height="19" viewBox="0 0 22 19" fill="none" xmlns="http://www.w3.org/2000/svg">
<path d="M6.24999 18.25V16.25C6.24999 15.1891 6.63191 14.1717 7.31173 13.4216C7.99155 12.6714 8.91359 12.25 9.875 12.25H17.125C18.0864 12.25 19.0084 12.6714 19.6883 13.4216C20.3681 14.1717 20.75 15.1891 20.75 16.25V18.25" stroke="currentColor" stroke-width="1.5" stroke-linecap="round" stroke-linejoin="round"/>
<path d="M13 8.25C10.9289 8.25 9.25 6.57107 9.25 4.5C9.25 2.42893 10.9289 0.75 13 0.75C15.0711 0.75 16.75 2.42893 16.75 4.5C16.75 6.57107 15.0711 8.25 13 8.25Z" stroke="currentColor" stroke-width="1.5" stroke-linecap="round" stroke-linejoin="round"/>
<path d="M0.749999 18.25V16.2057C0.75077 15.2998 1.09492 14.4198 1.72841 13.7038C2.36189 12.9878 3.24885 12.4765 4.25 12.25" stroke="currentColor" stroke-width="1.5" stroke-linecap="round" stroke-linejoin="round"/>
<path d="M7.25 0.75C6.39183 0.963195 5.63119 1.44745 5.08801 2.12643C4.54483 2.80541 4.25 3.64048 4.25 4.5C4.25 5.35952 4.54483 6.1946 5.08801 6.87357C5.63119 7.55255 6.39183 8.03681 7.25 8.25" stroke="currentColor" stroke-width="1.5" stroke-linecap="round" stroke-linejoin="round"/>
</svg>
