<svg width="20" height="22" viewBox="0 0 20 22" fill="none" xmlns="http://www.w3.org/2000/svg">
<path fill-rule="evenodd" clip-rule="evenodd" d="M19.5494 6.6049C19.2609 6.31638 18.8696 6.1543 18.4615 6.1543H1.53846C1.13044 6.1543 0.739122 6.31638 0.450603 6.6049C0.162086 6.89342 0 7.28473 0 7.69276V18.1375C0 20.0385 1.60555 21.5389 3.46154 21.5389H16.5385C18.4171 21.5389 20 19.9561 20 18.0774V7.69276C20 7.28473 19.8379 6.89342 19.5494 6.6049ZM1.53846 7.69276L18.4615 7.69276L18.4615 18.0774C18.4615 19.1064 17.5675 20.0005 16.5385 20.0005H3.46154C2.40984 20.0005 1.53846 19.1441 1.53846 18.1375V7.69276Z" fill="currentColor"/>
<path fill-rule="evenodd" clip-rule="evenodd" d="M9.99917 1.53846C11.0192 1.53846 11.9975 1.94368 12.7188 2.66497C13.4401 3.38627 13.8453 4.36455 13.8453 5.38462V6.92308C13.8453 7.34791 14.1897 7.69231 14.6146 7.69231C15.0394 7.69231 15.3838 7.34791 15.3838 6.92308V5.38462C15.3838 3.95653 14.8165 2.58693 13.8067 1.57712C12.7969 0.567306 11.4273 0 9.99917 0C8.57108 0 7.20149 0.567306 6.19168 1.57712C5.18186 2.58693 4.61456 3.95653 4.61456 5.38462V6.92308C4.61456 7.34791 4.95895 7.69231 5.38379 7.69231C5.80862 7.69231 6.15302 7.34791 6.15302 6.92308V5.38462C6.15302 4.36455 6.55824 3.38627 7.27953 2.66497C8.00083 1.94368 8.97911 1.53846 9.99917 1.53846Z" fill="currentColor"/>
<path fill-rule="evenodd" clip-rule="evenodd" d="M14.6146 8.46191C14.1897 8.46191 13.8453 8.80631 13.8453 9.23114V10.0004C13.8453 11.0204 13.4401 11.9987 12.7188 12.72C11.9975 13.4413 11.0192 13.8465 9.99917 13.8465C8.97911 13.8465 8.00083 13.4413 7.27953 12.72C6.55824 11.9987 6.15302 11.0204 6.15302 10.0004V9.23114C6.15302 8.80631 5.80862 8.46191 5.38379 8.46191C4.95895 8.46191 4.61456 8.80631 4.61456 9.23114V10.0004C4.61456 11.4285 5.18186 12.7981 6.19168 13.8079C7.20149 14.8177 8.57108 15.385 9.99917 15.385C11.4273 15.385 12.7969 14.8177 13.8067 13.8079C14.8165 12.7981 15.3838 11.4285 15.3838 10.0004V9.23114C15.3838 8.80631 15.0394 8.46191 14.6146 8.46191Z" fill="currentColor"/>
</svg>
