<svg width="24" height="24" viewBox="0 0 24 24" fill="none" xmlns="http://www.w3.org/2000/svg">
<path d="M18.5137 2.3718L21.9617 5.8188C22.2314 6.08865 22.4183 6.43004 22.5004 6.80266C22.5824 7.17529 22.5562 7.56361 22.4247 7.9218L20.6617 12.7338C20.6117 12.8702 20.5325 12.9941 20.4297 13.0968L12.1067 21.4198C11.921 21.6056 11.7005 21.753 11.4578 21.8535C11.215 21.9541 10.9549 22.0059 10.6922 22.0059C10.4295 22.0059 10.1693 21.9541 9.92664 21.8535C9.68394 21.753 9.46343 21.6056 9.2777 21.4198L2.9137 15.0558C2.53876 14.6807 2.32812 14.1721 2.32812 13.6418C2.32812 13.1115 2.53876 12.6028 2.9137 12.2278L11.2467 3.8948C11.3497 3.79189 11.4739 3.71271 11.6107 3.6628L16.4127 1.9078C16.7707 1.77687 17.1587 1.75099 17.5309 1.83319C17.9031 1.9154 18.2441 2.10227 18.5137 2.3718ZM12.5047 5.4658L4.3277 13.6418L10.6917 20.0058L18.8597 11.8388L20.5467 7.2338L17.0997 3.7858L12.5047 5.4658ZM15.2887 9.0458C15.143 8.90806 15.0264 8.74251 14.9458 8.55894C14.8652 8.37536 14.8222 8.17749 14.8193 7.97702C14.8165 7.77655 14.8539 7.57754 14.9293 7.39176C15.0047 7.20598 15.1165 7.0372 15.2583 6.8954C15.4 6.75359 15.5687 6.64164 15.7545 6.56616C15.9402 6.49069 16.1392 6.45321 16.3397 6.45595C16.5402 6.45869 16.7381 6.50159 16.9217 6.58212C17.1053 6.66265 17.2709 6.77917 17.4087 6.9248C17.6737 7.20915 17.8179 7.58524 17.811 7.97384C17.8042 8.36244 17.6468 8.73321 17.3719 9.00804C17.0971 9.28287 16.7263 9.44029 16.3377 9.44715C15.9491 9.454 15.573 9.30976 15.2887 9.0448V9.0458Z" fill="#2BA071"/>
</svg>
