<svg width="12" height="12" viewBox="0 0 12 12" fill="none" xmlns="http://www.w3.org/2000/svg">
<path d="M1.3512 4.8C1.25049 5.19204 1.19969 5.59523 1.2 6C1.2 6.414 1.2528 6.816 1.3512 7.2H3.06C2.97911 6.40205 2.97911 5.59796 3.06 4.8H1.3512ZM1.842 3.6H3.2496C3.4092 2.8698 3.6396 2.2158 3.9222 1.6716C3.05111 2.09125 2.32633 2.76314 1.842 3.6ZM10.6488 4.8H8.94C9.02089 5.59796 9.02089 6.40205 8.94 7.2H10.6488C10.8508 6.41275 10.8508 5.58725 10.6488 4.8ZM10.158 3.6C9.67367 2.76314 8.94889 2.09125 8.0778 1.6716C8.361 2.2158 8.5908 2.8698 8.7504 3.6H10.158ZM4.2672 4.8C4.22225 5.19842 4.19981 5.59905 4.2 6C4.2 6.411 4.2228 6.813 4.2672 7.2H7.7328C7.82316 6.40255 7.82316 5.59745 7.7328 4.8H4.2672ZM4.482 3.6H7.518C7.40881 3.14898 7.2513 2.71105 7.0482 2.2938C6.6714 1.5408 6.2682 1.2 6 1.2C5.7312 1.2 5.3286 1.5408 4.9518 2.2938C4.7628 2.673 4.6038 3.114 4.482 3.6ZM1.842 8.4C2.32633 9.23686 3.05111 9.90875 3.9222 10.3284C3.639 9.7842 3.4092 9.1302 3.2496 8.4H1.842ZM10.158 8.4H8.7504C8.5908 9.1302 8.3604 9.7842 8.0778 10.3284C8.94889 9.90875 9.67367 9.23686 10.158 8.4ZM4.482 8.4C4.6038 8.886 4.7628 9.327 4.9518 9.7062C5.3286 10.4592 5.7318 10.8 6 10.8C6.2688 10.8 6.6714 10.4592 7.0482 9.7062C7.2372 9.327 7.3962 8.886 7.518 8.4H4.482ZM6 12C2.6862 12 0 9.3138 0 6C0 2.6862 2.6862 0 6 0C9.3138 0 12 2.6862 12 6C12 9.3138 9.3138 12 6 12Z" fill="#B1B1B1"/>
</svg>
