<svg aria-hidden="true" style="position: absolute; width: 0; height: 0; overflow: hidden;" version="1.1" xmlns="http://www.w3.org/2000/svg" xmlns:xlink="http://www.w3.org/1999/xlink">
<defs>
<symbol id="alt" viewBox="0 0 32 32">
<path fill="#0a29b6" style="fill: var(--color1, #0a29b6)" d="M0 15.889c0-8.772 7.117-15.889 15.889-15.889s15.889 7.117 15.889 15.889c0 8.772-7.117 15.889-15.889 15.889s-15.889-7.117-15.889-15.889zM15.889 2.444c-7.422 0-13.444 6.022-13.444 13.444s6.022 13.444 13.444 13.444c7.422 0 13.444-6.022 13.444-13.444s-6.022-13.444-13.444-13.444z"></path>
<path fill="#0a29b6" style="fill: var(--color1, #0a29b6)" d="M14.287 10.519c-0.056-0.95 0.781-1.63 1.602-1.63s1.657 0.68 1.602 1.63l-0.4 10.717c-0.005 0.31-0.131 0.605-0.352 0.825-0.225 0.224-0.531 0.349-0.85 0.349s-0.624-0.126-0.85-0.349c-0.221-0.219-0.347-0.515-0.352-0.825l-0.4-10.717zM15.905 10.491c0 0-0-0-0-0s0 0 0 0zM15.873 10.491c0 0 0-0 0-0s-0 0-0 0z"></path>
</symbol>
<symbol id="arrow" viewBox="0 0 17 32">
<path d="M0.62 0.669c-0.827 0.893-0.827 2.34 0 3.232l11.208 12.098-11.208 12.098c-0.827 0.893-0.827 2.34 0 3.232s2.168 0.893 2.995 0l12.706-13.714c0.827-0.893 0.827-2.34 0-3.232l-12.706-13.714c-0.827-0.893-2.168-0.893-2.995 0z"></path>
</symbol>
<symbol id="ban" viewBox="0 0 34 32">
<path d="M3.702 31.805h26.283c0.609 0 1.219-0.154 1.751-0.44 0.872-0.47 1.504-1.249 1.789-2.198s0.185-1.951-0.285-2.815l-13.134-24.409c-0.648-1.203-1.897-1.943-3.262-1.943s-2.614 0.748-3.262 1.943l-13.142 24.409c-0.293 0.54-0.44 1.141-0.44 1.758 0 0.987 0.386 1.921 1.087 2.615 0.694 0.702 1.62 1.080 2.614 1.080zM29.985 29.337h-26.291c-0.332 0-0.64-0.131-0.872-0.362s-0.362-0.54-0.362-0.871c0-0.201 0.054-0.409 0.147-0.586l13.149-24.402c0.316-0.586 0.864-0.648 1.087-0.648s0.771 0.062 1.087 0.648l13.142 24.409c0.154 0.293 0.193 0.625 0.093 0.941-0.093 0.316-0.309 0.578-0.594 0.733-0.177 0.093-0.378 0.139-0.586 0.139z"></path>
<path d="M16.843 21.871c0.656 0 1.203-0.517 1.234-1.172l0.44-9.409c0-0.008 0-0.015 0-0.023v-0.039c0.008-0.925-0.733-1.681-1.658-1.689-0.031 0-0.062 0-0.093 0-0.925 0.039-1.643 0.825-1.596 1.751l0.44 9.409c0.031 0.655 0.578 1.172 1.234 1.172z"></path>
<path d="M16.844 26.792c0.848 0 1.542-0.694 1.542-1.542s-0.694-1.542-1.542-1.542c-0.848 0-1.543 0.694-1.543 1.542s0.694 1.542 1.543 1.542z"></path>
</symbol>
<symbol id="cheating" viewBox="0 0 34 32">
<path fill="#ff0707" style="fill: var(--color4, #ff0707)" d="M5.692 12h10v2h-10v-2z"></path>
<path fill="#ff0707" style="fill: var(--color4, #ff0707)" d="M5.692 22h22v2h-22v-2z"></path>
<path fill="#ff0707" style="fill: var(--color4, #ff0707)" d="M4.769 2.385c-1.317 0-2.385 1.068-2.385 2.385v21.462c0 1.317 1.068 2.385 2.385 2.385h23.846c1.317 0 2.385-1.068 2.385-2.385v-21.462c0-1.317-1.068-2.385-2.385-2.385h-23.846zM0 4.769c0-2.634 2.135-4.769 4.769-4.769h23.846c2.634 0 4.769 2.135 4.769 4.769v21.462c0 2.634-2.135 4.769-4.769 4.769h-23.846c-2.634 0-4.769-2.135-4.769-4.769v-21.462z"></path>
<path fill="#ff0707" style="fill: var(--color4, #ff0707)" d="M27.261 1.191h-21.137c-2.719 0-4.932 2.247-4.932 5.008v3.338h1.192c0-1.192 1.192-2.385 2.385-2.385h23.846c1.192 0 2.385 1.192 2.385 2.385h1.192v-3.338c0-2.761-2.212-5.008-4.932-5.008z"></path>
</symbol>
<symbol id="clock" viewBox="0 0 32 32">
<path fill="none" stroke="#959595" style="stroke: var(--color2, #959595)" stroke-linejoin="round" stroke-linecap="round" stroke-miterlimit="4" stroke-width="2.4615" d="M16 9.436v6.564l4.923 4.923M30.769 16c0 8.157-6.612 14.769-14.769 14.769s-14.769-6.612-14.769-14.769c0-8.157 6.612-14.769 14.769-14.769s14.769 6.612 14.769 14.769z"></path>
</symbol>
<symbol id="cocaine" viewBox="0 0 31 32">
<path fill="#e1e1e1" style="fill: var(--color5, #e1e1e1)" d="M0 4.848h31.030v23.273c0 1.607-1.302 2.909-2.909 2.909h-25.212c-1.607 0-2.909-1.302-2.909-2.909v-23.273z"></path>
<path fill="#e1e1e1" style="fill: var(--color5, #e1e1e1)" d="M0 4.848h31.030v-1.939c0-1.607-1.302-2.909-2.909-2.909h-25.212c-1.607 0-2.909 1.302-2.909 2.909v1.939z"></path>
<path fill="#fff" style="fill: var(--color3, #fff)" d="M7.758 26.182v-12.606h15.515v12.606h-15.515z"></path>
<path fill="#9b9b9b" style="fill: var(--color6, #9b9b9b)" d="M0 4.848h31.030v1.939h-31.030v-1.939z"></path>
</symbol>
<symbol id="copy" viewBox="0 0 32 32">
<path fill="#2ba071" style="fill: var(--color7, #2ba071)" d="M10.875 7.939c-1.622 0-2.936 1.315-2.936 2.936v15.898c0 1.622 1.315 2.936 2.936 2.936h15.898c1.622 0 2.936-1.314 2.936-2.936v-15.898c0-1.622-1.314-2.936-2.936-2.936h-15.898zM5.647 10.875c0-2.887 2.34-5.228 5.228-5.228h15.898c2.887 0 5.228 2.34 5.228 5.228v15.898c0 2.887-2.341 5.228-5.228 5.228h-15.898c-2.887 0-5.228-2.341-5.228-5.228v-15.898z"></path>
<path fill="#2ba071" style="fill: var(--color7, #2ba071)" d="M5.726 0h15.475c1.365 0.004 2.674 0.548 3.639 1.514s1.509 2.274 1.513 3.639c0 0.009 0 0.018-0 0.027l-0.036 1.719c-0.013 0.633-0.537 1.135-1.169 1.122s-1.135-0.537-1.122-1.169l0.036-1.704c-0.005-0.755-0.308-1.479-0.842-2.013-0.537-0.537-1.265-0.84-2.024-0.842h-15.464c-0.911 0.003-1.784 0.366-2.428 1.011s-1.008 1.517-1.011 2.428v15.464c0.003 0.759 0.305 1.487 0.842 2.024s1.265 0.84 2.024 0.842h1.717c0.633 0 1.146 0.513 1.146 1.146s-0.513 1.146-1.146 1.146h-1.722c-1.365-0.004-2.674-0.548-3.639-1.513s-1.51-2.274-1.514-3.639v-15.475c0.004-1.517 0.609-2.971 1.682-4.044s2.526-1.677 4.044-1.682z"></path>
</symbol>
<symbol id="darkRP" viewBox="0 0 37 32">
<path stroke-linejoin="miter" stroke-linecap="butt" stroke-miterlimit="4" stroke-width="1.6842" d="M13.789 1.979h3.684c1.395 0 2.526 1.131 2.526 2.526v22.211c0 1.395-1.131 2.526-2.526 2.526h-3.684c-1.395 0-2.526-1.131-2.526-2.526v-22.211c0-1.395 1.131-2.526 2.526-2.526z"></path>
<path stroke-linejoin="miter" stroke-linecap="butt" stroke-miterlimit="4" stroke-width="1.6842" d="M3.368 1.979h3.684c1.395 0 2.526 1.131 2.526 2.526v22.211c0 1.395-1.131 2.526-2.526 2.526h-3.684c-1.395 0-2.526-1.131-2.526-2.526v-22.211c0-1.395 1.131-2.526 2.526-2.526z"></path>
<path stroke-linejoin="miter" stroke-linecap="butt" stroke-miterlimit="4" stroke-width="1.6842" d="M23.633 2.456l3.211-0.813c1.353-0.342 2.727 0.477 3.069 1.829l5.496 21.722c0.342 1.353-0.477 2.727-1.829 3.069l-3.211 0.813c-1.353 0.342-2.727-0.477-3.069-1.829l-5.496-21.722c-0.342-1.353 0.477-2.727 1.829-3.069z"></path>
<path d="M15.579 4.61h0.105c0.93 0 1.684 0.754 1.684 1.684v4.737c0 0.93-0.754 1.684-1.684 1.684h-0.105c-0.93 0-1.684-0.754-1.684-1.684v-4.737c0-0.93 0.754-1.684 1.684-1.684z"></path>
<path d="M5.158 4.61h0.105c0.93 0 1.684 0.754 1.684 1.684v4.737c0 0.93-0.754 1.684-1.684 1.684h-0.105c-0.93 0-1.684-0.754-1.684-1.684v-4.737c0-0.93 0.754-1.684 1.684-1.684z"></path>
<path d="M25.702 5.209l0.631-0.16c0.902-0.228 1.818 0.318 2.046 1.22l1.146 4.528c0.228 0.902-0.318 1.818-1.22 2.046l-0.631 0.16c-0.902 0.228-1.818-0.318-2.046-1.22l-1.146-4.528c-0.228-0.902 0.318-1.818 1.22-2.046z"></path>
</symbol>
<symbol id="discord" viewBox="0 0 46 32">
<path fill="#fff" style="fill: var(--color3, #fff)" d="M40.497 4.053c-3.18-2.56-6.997-3.84-11.025-4.053l-0.636 0.64c3.604 0.853 6.785 2.56 9.753 4.907-3.604-1.92-7.633-3.2-11.874-3.627-1.272-0.213-2.332-0.213-3.604-0.213s-2.332 0-3.604 0.213c-4.241 0.427-8.269 1.707-11.874 3.627 2.968-2.347 6.149-4.053 9.753-4.907l-0.636-0.64c-4.029 0.213-7.845 1.493-11.025 4.053-3.604 6.827-5.513 14.507-5.725 22.4 3.18 3.413 7.633 5.547 12.298 5.547 0 0 1.484-1.707 2.544-3.2-2.756-0.64-5.301-2.133-6.997-4.48 1.484 0.853 2.968 1.707 4.453 2.347 1.908 0.853 3.816 1.28 5.725 1.707 1.696 0.213 3.393 0.427 5.089 0.427s3.393-0.213 5.089-0.427c1.908-0.427 3.817-0.853 5.725-1.707 1.484-0.64 2.968-1.493 4.453-2.347-1.696 2.347-4.241 3.84-6.997 4.48 1.060 1.493 2.544 3.2 2.544 3.2 4.665 0 9.117-2.133 12.298-5.547-0.212-7.893-2.12-15.573-5.725-22.4zM16.114 22.613c-2.12 0-4.029-1.92-4.029-4.267s1.908-4.267 4.029-4.267c2.12 0 4.029 1.92 4.029 4.267s-1.908 4.267-4.029 4.267zM30.108 22.613c-2.12 0-4.029-1.92-4.029-4.267s1.908-4.267 4.029-4.267c2.12 0 4.028 1.92 4.028 4.267s-1.908 4.267-4.028 4.267z"></path>
</symbol>
<symbol id="earners" viewBox="0 0 15 32">
<path fill="none" stroke-linejoin="round" stroke-linecap="round" stroke-miterlimit="4" stroke-width="2.1818" d="M11.978 8.836c-0.693-1.351-1.993-2.165-3.378-2.112h-3.756c-2.072 0-3.753 1.886-3.753 4.223 0 2.328 1.681 4.22 3.753 4.22h3.756c2.072 0 3.753 1.889 3.753 4.223 0 2.331-1.681 4.22-3.753 4.22h-3.756c-1.385 0.053-2.686-0.76-3.378-2.112"></path>
<path fill="none" stroke-linejoin="round" stroke-linecap="round" stroke-miterlimit="4" stroke-width="2.1818" d="M6.722 1.091v5.631"></path>
<path fill="none" stroke-linejoin="round" stroke-linecap="round" stroke-miterlimit="4" stroke-width="2.1818" d="M6.722 24.551v5.631"></path>
</symbol>
<symbol id="exit" viewBox="0 0 32 32">
<path fill="#f00" style="fill: var(--color8, #f00)" d="M6.857 30.857c0-0.629 0.539-1.143 1.197-1.143h17.959c1.987 0 3.592-1.531 3.592-3.429v-20.571c0-1.897-1.604-3.429-3.592-3.429h-17.959c-0.659 0-1.197-0.514-1.197-1.143s0.539-1.143 1.197-1.143h17.959c3.304 0 5.986 2.56 5.986 5.714v20.571c0 3.154-2.682 5.714-5.986 5.714h-17.959c-0.659 0-1.197-0.514-1.197-1.143z"></path>
<path fill="#f00" style="fill: var(--color8, #f00)" d="M21.243 18.285l-4.914 4.901c-0.446 0.445-0.446 1.177 0 1.622s1.177 0.445 1.623 0l6.856-6.855c0.445-0.446 0.445-1.177 0-1.622l-6.856-6.855c-0.446-0.446-1.177-0.446-1.623 0s-0.446 1.177 0 1.622l4.914 4.901h-20.101c-0.628 0-1.143 0.514-1.143 1.142s0.514 1.142 1.143 1.142h20.101z"></path>
</symbol>
<symbol id="flag" viewBox="0 0 23 32">
<path d="M4.952 3.2c-0.438 0-0.858 0.169-1.167 0.469s-0.484 0.707-0.484 1.131v24.001l4.916-4.347c0.912-0.807 2.103-1.254 3.338-1.254s2.426 0.447 3.338 1.254l4.916 4.347v-24.001c0-0.424-0.174-0.831-0.484-1.131s-0.729-0.469-1.167-0.469h-13.206zM4.952 0h13.206c1.313 0 2.573 0.506 3.502 1.406s1.45 2.121 1.45 3.394v24.001c-0 0.62-0.186 1.227-0.536 1.747s-0.847 0.93-1.433 1.18c-0.586 0.25-1.234 0.33-1.865 0.23s-1.22-0.376-1.693-0.794l-4.916-4.347c-0.304-0.269-0.701-0.418-1.113-0.418s-0.809 0.149-1.113 0.418l-4.916 4.347c-0.473 0.418-1.061 0.694-1.693 0.794s-1.28 0.020-1.865-0.23c-0.586-0.25-1.083-0.66-1.433-1.18s-0.536-1.127-0.536-1.747v-24.001c0-1.273 0.522-2.494 1.451-3.394s2.188-1.406 3.502-1.406v0z"></path>
</symbol>
<symbol id="hamburger" viewBox="0 0 41 32">
<path fill="none" stroke="#2ba071" style="stroke: var(--color7, #2ba071)" stroke-linejoin="round" stroke-linecap="round" stroke-miterlimit="4" stroke-width="4.5714" d="M2.286 2.286h36.571M2.286 11.429h36.571M2.286 20.571h36.571M2.286 29.714h36.571"></path>
</symbol>
<!-- <symbol id="gangs" viewBox="0 0 38 32">
<path d="M39.63 28.955c1.11 1.095 1.121 2.883 0.026 3.993s-2.883 1.122-3.993 0.026l3.967-4.019zM6.274 0l-1.983-2.010c1.1-1.085 2.867-1.085 3.967 0l-1.983 2.010zM0 6.193l-1.983 2.010c-0.538-0.531-0.84-1.254-0.84-2.010s0.303-1.479 0.84-2.010l1.983 2.010zM12.549 18.578l1.983-2.010c0.538 0.531 0.84 1.254 0.84 2.010s-0.303 1.479-0.84 2.010l-1.983-2.010zM8.366 22.707l-2.062 1.929c-1.045-1.117-1.011-2.864 0.078-3.939l1.983 2.010zM36.907 28.239c1.505-0.409 3.056 0.48 3.465 1.985s-0.48 3.056-1.985 3.465l-1.48-5.45zM37.647 30.964l-1.983 2.009-31.373-30.964 3.967-4.019 31.373 30.964-1.983 2.010zM6.274 0l1.983 2.010-6.274 6.193-3.967-4.019 6.275-6.193 1.983 2.010zM0 6.193l1.983-2.010 12.549 12.386-3.967 4.019-12.549-12.386 1.983-2.010zM12.549 18.578l1.983 2.010-4.183 4.129-3.967-4.019 4.183-4.129 1.983 2.010zM8.366 22.707l2.062-1.929c3.29 3.516 7.5 6.075 12.172 7.393l-1.533 5.435c-5.657-1.595-10.765-4.697-14.763-8.97l2.062-1.929zM21.833 30.888l0.766-2.718c4.672 1.317 9.622 1.341 14.307 0.069l1.48 5.45c-5.672 1.541-11.663 1.512-17.32-0.083l0.766-2.718z"></path>
</symbol> -->
<symbol id="gold" viewBox="0 0 79 32">
<path fill="#ffd900" style="fill: var(--color10, #ffd900)" d="M8.789 18.284h35.156l7.533 12.522h-51.478l8.789-12.522z"></path>
<path fill="#ffd900" style="fill: var(--color10, #ffd900)" d="M38.804 3.112l32.878 12.449 2.611 14.378-48.143-18.228 12.653-8.598z"></path>
</symbol>
<symbol id="leaderboard" viewBox="0 0 50 32">
<path  stroke-linejoin="round" stroke-linecap="round" stroke-miterlimit="4" stroke-width="3.4286" d="M24.571 1.714l-10.159 13.714-12.698-9.143 5.079 22.857h35.556l5.079-22.857-12.699 9.143-10.159-13.714z"></path>
</symbol>
<symbol id="link" viewBox="0 0 32 32">
<path fill="none" stroke="#2ba071" style="stroke: var(--color7, #2ba071)" stroke-linejoin="round" stroke-linecap="round" stroke-miterlimit="4" stroke-width="2.8235" d="M12.706 17.318c0.609 0.835 1.386 1.526 2.279 2.027s1.879 0.797 2.894 0.872c1.014 0.075 2.033-0.075 2.985-0.44s1.818-0.935 2.537-1.673l4.255-4.364c1.292-1.372 2.007-3.209 1.991-5.117s-0.762-3.732-2.077-5.080c-1.315-1.349-3.094-2.114-4.953-2.13s-3.651 0.717-4.989 2.042l-2.44 2.488"></path>
<path fill="none" stroke="#2ba071" style="stroke: var(--color7, #2ba071)" stroke-linejoin="round" stroke-linecap="round" stroke-miterlimit="4" stroke-width="2.8235" d="M18.353 13.741c-0.609-0.835-1.386-1.526-2.279-2.027s-1.879-0.797-2.894-0.872c-1.014-0.075-2.033 0.076-2.985 0.44s-1.818 0.935-2.537 1.673l-4.255 4.364c-1.292 1.372-2.007 3.209-1.991 5.117s0.762 3.732 2.077 5.080c1.315 1.349 3.094 2.114 4.953 2.13s3.651-0.717 4.989-2.042l2.426-2.488"></path>
</symbol>
<symbol id="mass" viewBox="0 0 48 32">
<path fill="#00a9dd" style="fill: var(--color11, #00a9dd)" d="M47.415 0.424c0.712 0.623 0.785 1.706 0.161 2.419l-24 27.429c-0.312 0.357-0.759 0.569-1.233 0.584s-0.934-0.166-1.269-0.501l-10.286-10.286c-0.669-0.669-0.669-1.755 0-2.424s1.755-0.669 2.424 0l8.99 8.99 22.793-26.050c0.623-0.713 1.706-0.785 2.419-0.161z"></path>
<path fill="#00a9dd" style="fill: var(--color11, #00a9dd)" d="M0.502 17.645c0.669-0.669 1.755-0.669 2.424 0l10.286 10.286c0.669 0.669 0.669 1.755 0 2.424s-1.755 0.669-2.424 0l-10.286-10.286c-0.669-0.669-0.669-1.755 0-2.424z"></path>
<path fill="#00a9dd" style="fill: var(--color11, #00a9dd)" d="M37.127 0.422c0.714 0.622 0.788 1.705 0.166 2.419l-14.571 16.714c-0.622 0.714-1.705 0.788-2.419 0.166s-0.788-1.705-0.166-2.419l14.571-16.714c0.622-0.714 1.705-0.788 2.419-0.166z"></path>
</symbol>
<symbol id="meth" viewBox="0 0 25 32">
<path fill="#66ceff" style="fill: var(--color12, #66ceff); stroke: var(--color13, #d4f1ff)" stroke="#d4f1ff" stroke-linejoin="miter" stroke-linecap="butt" stroke-miterlimit="4" stroke-width="0.9481" d="M21.825 10.261l-6.578 15.952-5.749 2.502-2.314-5.826 6.579-15.954 5.748-2.501 2.315 5.827z"></path>
<path fill="#66ceff" style="fill: var(--color12, #66ceff); stroke: var(--color13, #d4f1ff)" stroke="#d4f1ff" stroke-linejoin="miter" stroke-linecap="butt" stroke-miterlimit="4" stroke-width="0.9481" d="M10.541 4.859l7.629 15.477-1.92 5.969-5.902-2.112-7.63-15.479 1.919-5.967 5.903 2.112z"></path>
</symbol>
<symbol id="moonshine" viewBox="0 0 28 32">
<path fill="#bbf1ff" style="fill: var(--color14, #bbf1ff)" d="M5.12 14.080h20.48l-1.707 16.64h-18.773v-16.64z"></path>
<path fill="#d9d9d9" style="fill: var(--color15, #d9d9d9)" d="M1.058 1.772c0.861-1.032 2.261-1.772 4.357-1.772l21.472 0.004c0 0 0 0 0.001 0s0 0 0 0c0.269 0 0.69 0.082 0.996 0.478 0.272 0.352 0.275 0.737 0.275 0.839 0 0.188-0.042 0.335-0.068 0.414-0.029 0.086-0.062 0.156-0.085 0.203-0.046 0.091-0.097 0.169-0.127 0.214-0.023 0.035-0.051 0.076-0.070 0.103-0.006 0.008-0.011 0.015-0.014 0.021-0.011 0.016-0.019 0.027-0.025 0.037s-0.008 0.012-0.008 0.012l0-0c-0.005 0.008-0.010 0.016-0.015 0.024 0-0.001-0 0.001-0.002 0.004-0.020 0.036-0.186 0.33-0.35 0.756-0.179 0.466-0.319 0.994-0.319 1.463v21.714c0 1.516-0.57 2.969-1.586 4.041s-2.393 1.674-3.829 1.674h-12.997c-1.436 0-2.814-0.602-3.829-1.674s-1.586-2.525-1.586-4.041v-18.857c0-0.914-0.222-1.116-0.373-1.222-0.309-0.218-0.849-0.343-1.942-0.503-0.536-0.078-0.934-0.561-0.934-1.132 0-0.671 0.233-1.81 1.058-2.799zM2.437 3.646c0.59 0.131 1.165 0.323 1.641 0.658 0.961 0.676 1.338 1.753 1.338 3.124v18.857c0 0.909 0.342 1.781 0.952 2.424s1.436 1.004 2.298 1.004h12.997c0.862 0 1.688-0.361 2.297-1.004s0.952-1.515 0.952-2.424v-21.714c0-0.869 0.239-1.693 0.463-2.284l-1.682-0.002h-18.277c-1.579 0-2.346 0.535-2.732 0.997-0.099 0.119-0.181 0.242-0.247 0.363z"></path>
</symbol>
<symbol id="mrb" viewBox="0 0 32 32">
<path fill="#f80" style="fill: var(--color16, #f80)" d="M4.443 32c-2.45 0-4.443-1.993-4.443-4.443v-23.114c0-2.45 1.993-4.443 4.443-4.443h18.864c0.914 0 1.779 0.357 2.421 1.007l5.264 5.264c0.65 0.65 1.007 1.507 1.007 2.421v18.864c-0.007 2.443-2 4.436-4.443 4.443h-23.114zM4.443 2.286c-0.579 0-1.121 0.221-1.529 0.629s-0.629 0.95-0.629 1.529v23.114c0 1.193 0.964 2.157 2.157 2.157h23.114c1.186 0 2.157-0.971 2.157-2.164v-18.857c0-0.307-0.121-0.593-0.336-0.807l-5.264-5.264c-0.214-0.214-0.5-0.336-0.807-0.336h-18.864zM16.014 28.571h-0.014c-3.15 0-5.714-2.564-5.714-5.714s2.564-5.714 5.714-5.714c3.15 0 5.714 2.564 5.714 5.714 0 1.521-0.593 2.957-1.664 4.036-1.079 1.079-2.514 1.679-4.036 1.679zM16 19.429c-1.893 0-3.429 1.536-3.429 3.429s1.536 3.429 3.429 3.429h0.014c0.914 0 1.771-0.357 2.414-1.007s1-1.507 1-2.421c0-1.893-1.536-3.429-3.429-3.429zM19.429 12.571h-13.714c-1.257 0-2.286-1.029-2.286-2.286v-4.571c0-1.257 1.029-2.286 2.286-2.286h13.714c1.257 0 2.286 1.029 2.286 2.286v4.571c0 1.257-1.029 2.286-2.286 2.286zM5.714 5.714v4.571h13.714v-4.571h-13.714z"></path>
</symbol>
<symbol id="paypal" viewBox="0 0 32 32">
<path fill="#009cde" style="fill: var(--color17, #009cde)" d="M24.849 9.617c0.312-2.032 0-3.387-1.091-4.637-1.195-1.407-3.376-1.98-6.181-1.98h-8.051c-0.571 0-1.039 0.417-1.143 0.99l-3.376 21.363c-0.052 0.417 0.26 0.782 0.675 0.782h4.987l-0.364 2.188c-0.052 0.365 0.208 0.677 0.623 0.677h4.208c0.519 0 0.935-0.365 0.987-0.834l0.883-5.523c0.052-0.469 0.519-0.834 0.987-0.834h0.623c4.052 0 7.272-1.667 8.207-6.461 0.364-1.98 0.208-3.699-0.831-4.846-0.312-0.365-0.675-0.625-1.143-0.886z"></path>
<path fill="#012169" style="fill: var(--color18, #012169)" d="M24.849 9.617c0.312-2.032 0-3.387-1.091-4.637-1.195-1.407-3.376-1.98-6.181-1.98h-8.051c-0.571 0-1.039 0.417-1.143 0.99l-3.376 21.363c-0.052 0.417 0.26 0.782 0.675 0.782h4.987l1.195-7.712c0.104-0.573 0.571-0.99 1.143-0.99h2.389c4.675 0 8.311-1.876 9.35-7.399 0.052-0.104 0.052-0.261 0.104-0.417z"></path>
<path fill="#003087" style="fill: var(--color19, #003087)" d="M13.265 9.669c0.052-0.365 0.52-0.834 0.987-0.834h6.337c0.727 0 1.454 0.052 2.078 0.156 0.571 0.104 1.61 0.365 2.13 0.677 0.312-2.032 0-3.387-1.091-4.637-1.143-1.459-3.324-2.032-6.13-2.032h-8.051c-0.571 0-1.039 0.417-1.143 0.99l-3.376 21.363c-0.052 0.417 0.26 0.782 0.675 0.782h4.987l2.597-16.465z"></path>
</symbol>
<symbol id="pen" viewBox="0 0 32 32">
<path fill="none" stroke="#b1b1b1" style="stroke: var(--color20, #b1b1b1)" stroke-linejoin="round" stroke-linecap="round" stroke-miterlimit="4" stroke-width="2.4615" d="M21.304 4.887l5.802 5.79M23.766 2.43c1.602-1.599 4.2-1.599 5.802 0s1.602 4.191 0 5.791l-22.593 22.549h-5.744v-5.849l22.535-22.491z"></path>
</symbol>
<symbol id="profile" viewBox="0 0 28 32">
<path fill="none" stroke="#b1b1b1" style="stroke: var(--color20, #b1b1b1)" stroke-linejoin="round" stroke-linecap="round" stroke-miterlimit="4" stroke-width="2.1333" d="M26.667 29.867v-3.2c0-1.697-0.674-3.325-1.875-4.525s-2.828-1.875-4.525-1.875h-12.8c-1.697 0-3.325 0.674-4.525 1.875s-1.875 2.828-1.875 4.525v3.2"></path>
<path fill="none" stroke="#b1b1b1" style="stroke: var(--color20, #b1b1b1)" stroke-linejoin="round" stroke-linecap="round" stroke-miterlimit="4" stroke-width="2.1333" d="M13.867 13.867c3.535 0 6.4-2.865 6.4-6.4s-2.865-6.4-6.4-6.4c-3.535 0-6.4 2.865-6.4 6.4s2.865 6.4 6.4 6.4z"></path>
</symbol>
<symbol id="punishments" viewBox="0 0 32 32">
<path fill="none" stroke-linejoin="round" stroke-linecap="round" stroke-miterlimit="4" stroke-width="2.1818" d="M13.959 12.489l-11.875 11.932c-1.324 1.319-1.324 3.455 0 4.772 0.636 0.633 1.496 0.988 2.393 0.988s1.757-0.355 2.393-0.988l11.914-11.879"></path>
<path fill="none" stroke-linejoin="round" stroke-linecap="round" stroke-miterlimit="4" stroke-width="2.1818" d="M25.216 10.879l-6.434 6.434"></path>
<path fill="none" stroke-linejoin="round" stroke-linecap="round" stroke-miterlimit="4" stroke-width="2.1818" d="M13.957 12.488l6.434-6.434"></path>
<path fill="none" stroke-linejoin="round" stroke-linecap="round" stroke-miterlimit="4" stroke-width="2.1818" d="M23.941 21.806l5.768-5.768c0.302-0.302 0.471-0.711 0.471-1.137s-0.169-0.836-0.471-1.137l-3.688-3.688-0.804 0.804-4.825-4.825 0.804-0.804-3.688-3.688c-0.302-0.302-0.711-0.471-1.137-0.471s-0.835 0.169-1.137 0.471l-5.768 5.768c-0.302 0.302-0.471 0.711-0.471 1.137s0.169 0.836 0.471 1.137l3.688 3.688 0.804-0.804 4.825 4.826-0.804 0.804 3.688 3.688c0.302 0.302 0.711 0.471 1.137 0.471s0.836-0.169 1.137-0.471v0z"></path>
</symbol>
<symbol id="rules" viewBox="0 0 41 32">
<path fill="none" stroke-linejoin="round" stroke-linecap="round" stroke-miterlimit="4" stroke-width="2.8235" d="M39.059 30.372c-2.862-1.897-6.107-2.896-9.412-2.896s-6.55 0.999-9.412 2.896c-2.861-1.897-6.107-2.896-9.412-2.896s-6.55 0.999-9.412 2.896"></path>
<path fill="none" stroke-linejoin="round" stroke-linecap="round" stroke-miterlimit="4" stroke-width="2.8235" d="M39.059 4.308c-2.862-1.897-6.107-2.896-9.412-2.896s-6.55 0.999-9.412 2.896c-2.861-1.897-6.107-2.896-9.412-2.896s-6.55 0.999-9.412 2.896"></path>
<path fill="none" stroke-linejoin="round" stroke-linecap="round" stroke-miterlimit="4" stroke-width="2.8235" d="M39.059 4.307v26.063"></path>
<path fill="none" stroke-linejoin="round" stroke-linecap="round" stroke-miterlimit="4" stroke-width="2.8235" d="M20.235 4.307v26.063"></path>
<path fill="none" stroke-linejoin="round" stroke-linecap="round" stroke-miterlimit="4" stroke-width="2.8235" d="M1.412 4.307v26.063"></path>
</symbol>
<symbol id="search" viewBox="0 0 37 32">
<path fill="#828385" style="fill: var(--color21, #828385)" d="M6.017 2.282c2.226-1.488 4.844-2.282 7.522-2.282h0c3.591 0 7.034 1.427 9.573 3.966s3.965 5.982 3.966 9.573v0c0 2.678-0.794 5.295-2.282 7.522s-3.602 3.962-6.076 4.986c-2.474 1.025-5.196 1.293-7.822 0.77s-5.039-1.812-6.932-3.705c-1.893-1.893-3.183-4.306-3.705-6.932s-0.254-5.348 0.77-7.822c1.025-2.474 2.76-4.588 4.986-6.076zM24.574 13.538c-0-2.927-1.163-5.734-3.232-7.803s-4.876-3.232-7.803-3.232zM13.538 2.503c-2.183 0-4.316 0.647-6.131 1.86s-3.229 2.936-4.064 4.953-1.054 4.235-0.628 6.376c0.426 2.141 1.477 4.107 3.020 5.65s3.51 2.594 5.65 3.020c2.141 0.426 4.36 0.207 6.376-0.628s3.74-2.25 4.953-4.064c1.213-1.815 1.86-3.948 1.86-6.131z"></path>
<path fill="#828385" style="fill: var(--color21, #828385)" d="M25.112 22.155c0.543-0.434 1.423-0.434 1.965 0l9.451 7.948c0.543 0.434 0.543 1.138 0 1.572s-1.423 0.434-1.965 0l-9.451-7.948c-0.543-0.434-0.543-1.138 0-1.572z"></path>
</symbol>
<symbol id="shelves" viewBox="0 0 26 32">
<path d="M17.726 0h-13.79c-1.043 0.003-2.042 0.419-2.78 1.156s-1.153 1.737-1.156 2.78v22.649c0 0.378 0.217 0.723 0.558 0.887s0.746 0.118 1.042-0.119l4.923-3.939-1.23-1.538-3.323 2.659v-20.596c0.002-0.522 0.21-1.022 0.579-1.392s0.869-0.577 1.392-0.579h13.782c0.522 0.002 1.022 0.21 1.392 0.579s0.577 0.869 0.579 1.392v0.983h1.969v-0.987c-0.003-1.043-0.419-2.042-1.156-2.78s-1.737-1.153-2.78-1.156z"></path>
<path d="M21.665 4.924h-12.803v0.985l-0.003-0.985c-1.043 0.003-2.042 0.419-2.78 1.156s-1.153 1.737-1.156 2.78v21.665c0 0.383 0.222 0.731 0.569 0.893s0.757 0.107 1.050-0.14l8.72-7.343 8.72 7.343c0.293 0.247 0.702 0.301 1.050 0.14s0.569-0.51 0.569-0.893v-21.665c-0.003-1.043-0.419-2.042-1.156-2.78s-1.737-1.153-2.78-1.156zM8.863 6.893h12.797c0.522 0.002 1.022 0.21 1.392 0.579s0.577 0.869 0.579 1.392v19.544l-7.735-6.514c-0.367-0.309-0.902-0.309-1.268 0l-7.735 6.514v-19.544c0.002-0.522 0.21-1.022 0.579-1.392s0.869-0.577 1.391-0.579z"></path>
</symbol>
<symbol id="staff" viewBox="0 0 37 32">
<path fill="none" stroke-linejoin="round" stroke-linecap="round" stroke-miterlimit="4" stroke-width="2.5263" d="M10.526 30.737v-3.368c0-1.787 0.643-3.5 1.788-4.764s2.698-1.973 4.317-1.973h12.211c1.619 0 3.172 0.71 4.317 1.973s1.788 2.977 1.788 4.764v3.368"></path>
<path fill="none" stroke-linejoin="round" stroke-linecap="round" stroke-miterlimit="4" stroke-width="2.5263" d="M21.895 13.895c-3.488 0-6.316-2.828-6.316-6.316s2.828-6.316 6.316-6.316c3.488 0 6.316 2.828 6.316 6.316s-2.828 6.316-6.316 6.316z"></path>
<path fill="none" stroke-linejoin="round" stroke-linecap="round" stroke-miterlimit="4" stroke-width="2.5263" d="M1.263 30.737v-3.443c0.001-1.526 0.581-3.008 1.648-4.214s2.561-2.067 4.247-2.448"></path>
<path fill="none" stroke-linejoin="round" stroke-linecap="round" stroke-miterlimit="4" stroke-width="2.5263" d="M12.211 1.263c-1.445 0.359-2.726 1.175-3.641 2.318s-1.411 2.55-1.411 3.998c0 1.448 0.497 2.854 1.411 3.998s2.196 1.959 3.641 2.318"></path>
</symbol>
<symbol id="store" viewBox="0 0 29 32">
<path d="M28.436 9.607c-0.42-0.42-0.989-0.655-1.582-0.655h-24.615c-0.593 0-1.163 0.236-1.582 0.655s-0.655 0.989-0.655 1.582v15.192c0 2.765 2.335 4.948 5.035 4.948h19.021c2.733 0 5.035-2.302 5.035-5.035v-15.105c0-0.594-0.236-1.163-0.655-1.582zM2.238 11.189h24.615v15.105c0 1.497-1.3 2.797-2.797 2.797h-19.021c-1.53 0-2.797-1.246-2.797-2.71v-15.192z"></path>
<path d="M14.544 2.238c1.484 0 2.907 0.589 3.956 1.639s1.639 2.472 1.639 3.956v2.238c0 0.618 0.501 1.119 1.119 1.119s1.119-0.501 1.119-1.119v-2.238c0-2.077-0.825-4.069-2.294-5.538s-3.461-2.294-5.538-2.294c-2.077 0-4.069 0.825-5.538 2.294s-2.294 3.461-2.294 5.538v2.238c0 0.618 0.501 1.119 1.119 1.119s1.119-0.501 1.119-1.119v-2.238c0-1.484 0.589-2.907 1.639-3.956s2.472-1.639 3.956-1.639z"></path>
<path d="M21.258 12.308c-0.618 0-1.119 0.501-1.119 1.119v1.119c0 1.484-0.589 2.907-1.639 3.956s-2.472 1.639-3.956 1.639c-1.484 0-2.907-0.589-3.956-1.639s-1.639-2.472-1.639-3.956v-1.119c0-0.618-0.501-1.119-1.119-1.119s-1.119 0.501-1.119 1.119v1.119c0 2.077 0.825 4.069 2.294 5.538s3.461 2.294 5.538 2.294c2.077 0 4.069-0.825 5.538-2.294s2.294-3.461 2.294-5.538v-1.119c0-0.618-0.501-1.119-1.119-1.119z"></path>
</symbol>
<symbol id="version" viewBox="0 0 32 32">
<path fill="#b1b1b1" style="fill: var(--color20, #b1b1b1)" d="M3.603 12.8c-0.269 1.045-0.404 2.121-0.403 3.2 0 1.104 0.141 2.176 0.403 3.2h4.557c-0.216-2.128-0.216-4.272 0-6.4h-4.557zM4.912 9.6h3.754c0.426-1.947 1.040-3.691 1.794-5.142-2.323 1.119-4.256 2.911-5.547 5.142zM28.397 12.8h-4.557c0.216 2.128 0.216 4.272 0 6.4h4.557c0.539-2.099 0.539-4.301 0-6.4zM27.088 9.6c-1.292-2.232-3.224-4.023-5.547-5.142 0.755 1.451 1.368 3.195 1.794 5.142h3.754zM11.379 12.8c-0.12 1.062-0.18 2.131-0.179 3.2 0 1.096 0.061 2.168 0.179 3.2h9.242c0.241-2.127 0.241-4.273 0-6.4h-9.242zM11.952 9.6h8.096c-0.291-1.203-0.711-2.371-1.253-3.483-1.005-2.008-2.080-2.917-2.795-2.917-0.717 0-1.79 0.909-2.795 2.917-0.504 1.011-0.928 2.187-1.253 3.483zM4.912 22.4c1.292 2.232 3.224 4.023 5.547 5.142-0.755-1.451-1.368-3.195-1.794-5.142h-3.754zM27.088 22.4h-3.754c-0.426 1.947-1.040 3.691-1.794 5.142 2.323-1.119 4.256-2.911 5.547-5.142zM11.952 22.4c0.325 1.296 0.749 2.472 1.253 3.483 1.005 2.008 2.080 2.917 2.795 2.917 0.717 0 1.79-0.909 2.795-2.917 0.504-1.011 0.928-2.187 1.253-3.483h-8.096zM16 32c-8.837 0-16-7.163-16-16s7.163-16 16-16c8.837 0 16 7.163 16 16s-7.163 16-16 16z"></path>
</symbol>
<symbol id="weed" viewBox="0 0 51 32">
<path fill="none" stroke="#fff" style="stroke: var(--color3, #fff)" stroke-linejoin="round" stroke-linecap="round" stroke-miterlimit="4" stroke-width="2.9091" d="M13.091 20.364v10.182"></path>
<path fill="none" stroke="#fff" style="stroke: var(--color3, #fff)" stroke-linejoin="round" stroke-linecap="round" stroke-miterlimit="4" stroke-width="2.9091" d="M42.667 20.364h-38.788c-1.339 0-2.424 1.14-2.424 2.545v5.091c0 1.406 1.085 2.545 2.424 2.545h38.788c1.339 0 2.424-1.14 2.424-2.545v-5.091c0-1.406-1.085-2.545-2.424-2.545z"></path>
<path fill="#2da172" style="fill: var(--color22, #2da172); stroke: var(--color3, #fff)" stroke="#fff" stroke-linejoin="round" stroke-linecap="round" stroke-miterlimit="4" stroke-width="2.9091" d="M43.313 20.364h-28.445c-0.982 0-1.778 1.14-1.778 2.545v5.091c0 1.406 0.796 2.545 1.778 2.545h28.445c0.982 0 1.778-1.14 1.778-2.545v-5.091c0-1.406-0.796-2.545-1.778-2.545z"></path>
<path fill="none" stroke="#acacac" style="stroke: var(--color23, #acacac)" stroke-linejoin="round" stroke-linecap="round" stroke-miterlimit="4" stroke-width="2.9091" d="M40.727 1.455v1.745c0 1.852 0.46 3.628 1.278 4.937s1.928 2.045 3.086 2.045c1.157 0 2.267 0.736 3.086 2.045s1.278 3.085 1.278 4.937v1.745"></path>
</symbol>
<symbol id="close" viewBox="0 0 24 24">
<path fill="none" stroke="currentColor" stroke-linecap="round" stroke-linejoin="round" stroke-width="2" d="M6 18L18 6M6 6l12 12"/>
</symbol>
<symbol id="gangs" viewBox="0 0 20 17">
<mask id="path-1-inside-1_410_8850" fill="white">
<path d="M20 16.4497L3.33333 0L0 3.28993L6.66667 9.86979L4.44444 12.0631C6.38028 14.132 8.8554 15.6356 11.599 16.4093C14.3426 17.183 17.2489 17.1969 20 16.4497Z"/>
</mask>
<path fill="currentColor" d="M21.0537 15.3821C21.6433 15.964 21.6495 16.9137 21.0676 17.5033C20.4857 18.093 19.5359 18.0992 18.9463 17.5172L20 16.4497L21.0537 15.3821ZM3.33333 0L2.27965 -1.06759C2.8638 -1.64414 3.80286 -1.64414 4.38702 -1.06759L3.33333 0ZM0 3.28993L-1.05369 4.35752C-1.33925 4.07567 -1.5 3.69116 -1.5 3.28993C-1.5 2.8887 -1.33925 2.50419 -1.05369 2.22234L0 3.28993ZM6.66667 9.86979L7.72035 8.80221C8.00592 9.08405 8.16667 9.46856 8.16667 9.86979C8.16667 10.271 8.00592 10.6555 7.72035 10.9374L6.66667 9.86979ZM4.44444 12.0631L3.34913 13.0879C2.79378 12.4944 2.81223 11.5665 3.39076 10.9955L4.44444 12.0631ZM19.6068 15.0021C20.4063 14.785 21.2304 15.257 21.4475 16.0565C21.6647 16.8559 21.1927 17.6801 20.3932 17.8972L20 16.4497L19.6068 15.0021ZM20 16.4497L18.9463 17.5172L2.27965 1.06759L3.33333 0L4.38702 -1.06759L21.0537 15.3821L20 16.4497ZM3.33333 0L4.38702 1.06759L1.05369 4.35752L0 3.28993L-1.05369 2.22234L2.27965 -1.06759L3.33333 0ZM0 3.28993L1.05369 2.22234L7.72035 8.80221L6.66667 9.86979L5.61298 10.9374L-1.05369 4.35752L0 3.28993ZM6.66667 9.86979L7.72035 10.9374L5.49813 13.1307L4.44444 12.0631L3.39076 10.9955L5.61298 8.80221L6.66667 9.86979ZM4.44444 12.0631L5.53975 11.0382C7.28749 12.9062 9.52413 14.2657 12.0061 14.9656L11.599 16.4093L11.1919 17.853C8.18668 17.0055 5.47308 15.3579 3.34913 13.0879L4.44444 12.0631ZM11.599 16.4093L12.0061 14.9656C14.4882 15.6655 17.1179 15.6782 19.6068 15.0021L20 16.4497L20.3932 17.8972C17.3799 18.7157 14.197 18.7004 11.1919 17.853L11.599 16.4093Z" mask="url(#path-1-inside-1_410_8850)"/>
</symbol>
</defs>
</svg>
